<svg xmlns="http://www.w3.org/2000/svg" viewBox="0 0 685.5 515.44">
    <defs>
        <style>.a{fill:#FFFFFF;}.b{fill:#FFFFFF;}</style>
    </defs>
    <title>logo-text</title>
    <path class="a"
          d="M458.87,93.55c0,13.88-8.83,26.88-19,42.05l3.84-41.78a22.76,22.76,0,1,0-45.51,0l11.38,123.73a11.38,11.38,0,1,0,22.75,0l1.92-20.91c9.09-48,47.38-69.67,47.38-103.09a60.68,60.68,0,1,0-121.35,0,11.38,11.38,0,0,0,22.75,0,37.93,37.93,0,1,1,75.85,0Z"
          transform="translate(-66.94 -32.87)"/>
    <circle class="a" cx="354" cy="237.77" r="22.75"/>
    <path class="b"
          d="M110.57,369.6a12.88,12.88,0,0,1-4.51,3.43,13.51,13.51,0,0,1-5.61,1.16,15.07,15.07,0,0,1-7.3-1.8,33.07,33.07,0,0,1-7.57-6.22A21.06,21.06,0,0,1,76,363.05a18.94,18.94,0,0,1-6.63-7,20.65,20.65,0,0,1,.33-19.85A19.05,19.05,0,0,1,77.12,329a23.43,23.43,0,0,1,21.34,0,19,19,0,0,1,7.46,7.11,20.66,20.66,0,0,1,.89,18.71,19.19,19.19,0,0,1-5.09,6.64,20.16,20.16,0,0,1-7.57,3.95,11.66,11.66,0,0,0,3.15,2.49,7.27,7.27,0,0,0,3.32.77,8.71,8.71,0,0,0,6.63-3.09ZM76,353.37a12.66,12.66,0,0,0,4.87,4.87,14.81,14.81,0,0,0,13.93,0,12.59,12.59,0,0,0,4.87-4.87,14.71,14.71,0,0,0,0-14,12.66,12.66,0,0,0-4.87-4.87,14.81,14.81,0,0,0-13.93,0A12.73,12.73,0,0,0,76,339.38a14.78,14.78,0,0,0,0,14Z"
          transform="translate(-66.94 -32.87)"/>
    <path class="b"
          d="M141.14,361.78q-4.48-4.51-4.48-12.92V327h7.19v21.57q0,11.39,9.84,11.39t9.78-11.39V327h7.08v21.84q0,8.42-4.45,12.92t-12.47,4.5Q145.62,366.28,141.14,361.78Z"
          transform="translate(-66.94 -32.87)"/>
    <path class="b" d="M230.52,359.7v6h-29V327h28.25v6H208.68v10.06h18.69V349H208.68V359.7Z"
          transform="translate(-66.94 -32.87)"/>
    <path class="b"
          d="M263.26,365a18.07,18.07,0,0,1-6.6-3.37l2.48-5.59a19.42,19.42,0,0,0,5.84,3.07,21.23,21.23,0,0,0,6.94,1.19q4.31,0,6.44-1.38a4.19,4.19,0,0,0,2.13-3.65,3.54,3.54,0,0,0-1.19-2.74,8.42,8.42,0,0,0-3-1.69q-1.83-.6-5-1.38a57.72,57.72,0,0,1-7.16-2.1,11.78,11.78,0,0,1-4.7-3.29,8.84,8.84,0,0,1-2-6.05,10.35,10.35,0,0,1,1.74-5.84,11.76,11.76,0,0,1,5.25-4.17,21.33,21.33,0,0,1,8.6-1.55,27.8,27.8,0,0,1,7,.88A19.2,19.2,0,0,1,286,329.9l-2.27,5.58a22.21,22.21,0,0,0-5.3-2.26,19.76,19.76,0,0,0-5.37-.78q-4.26,0-6.33,1.44a4.44,4.44,0,0,0-2.07,3.81,3.42,3.42,0,0,0,1.19,2.71,8.44,8.44,0,0,0,3,1.66q1.83.62,5,1.39a52.31,52.31,0,0,1,7.08,2.07,12.08,12.08,0,0,1,4.72,3.29,8.65,8.65,0,0,1,2,6,10.24,10.24,0,0,1-1.75,5.81,11.83,11.83,0,0,1-5.28,4.14,21.5,21.5,0,0,1-8.62,1.55A29.51,29.51,0,0,1,263.26,365Z"
          transform="translate(-66.94 -32.87)"/>
    <path class="b" d="M324.46,333.1H311.64V327h32.84v6.08H331.65v32.63h-7.19Z" transform="translate(-66.94 -32.87)"/>
    <path class="b" d="M371,327h7.19v38.71H371Z" transform="translate(-66.94 -32.87)"/>
    <path class="b"
          d="M417.09,363.71a19.05,19.05,0,0,1-7.47-7.13,20.57,20.57,0,0,1,0-20.41,19.05,19.05,0,0,1,7.47-7.13,23.43,23.43,0,0,1,21.34,0,19,19,0,0,1,7.46,7.11,20.64,20.64,0,0,1,0,20.45,19,19,0,0,1-7.46,7.11,23.43,23.43,0,0,1-21.34,0Zm17.63-5.47a12.59,12.59,0,0,0,4.87-4.87,14.71,14.71,0,0,0,0-14,12.66,12.66,0,0,0-4.87-4.87,14.81,14.81,0,0,0-13.93,0,12.73,12.73,0,0,0-4.87,4.87,14.78,14.78,0,0,0,0,14,12.66,12.66,0,0,0,4.87,4.87,14.81,14.81,0,0,0,13.93,0Z"
          transform="translate(-66.94 -32.87)"/>
    <path class="b" d="M511.68,327v38.71h-5.92l-21.34-26.21v26.21h-7.14V327h5.92l21.34,26.21V327Z"
          transform="translate(-66.94 -32.87)"/>
    <path class="b"
          d="M568.47,356.77H549.12l-3.82,9h-7.41L555.31,327h7.08l17.47,38.71h-7.52Zm-2.38-5.64-7.3-16.92-7.24,16.92Z"
          transform="translate(-66.94 -32.87)"/>
    <path class="b"
          d="M638.59,349.11a9.79,9.79,0,0,1,1.88,6.11A8.94,8.94,0,0,1,636.6,363q-3.87,2.75-11.28,2.74H606.08V327h18.13q6.85,0,10.56,2.68a8.63,8.63,0,0,1,3.71,7.39,9.63,9.63,0,0,1-1.33,5.08,9,9,0,0,1-3.65,3.43A10.24,10.24,0,0,1,638.59,349.11Zm-25.33-16.45v10.67h10.18a10.4,10.4,0,0,0,5.78-1.35,4.46,4.46,0,0,0,2-4,4.52,4.52,0,0,0-2-4,10.31,10.31,0,0,0-5.78-1.36Zm20,21.84q0-5.58-8.35-5.58H613.26v11.17h11.62Q633.22,360.09,633.23,354.5Z"
          transform="translate(-66.94 -32.87)"/>
    <path class="b" d="M669.39,327h7.19v32.63h20.23v6.08H669.39Z" transform="translate(-66.94 -32.87)"/>
    <path class="b" d="M752.45,359.7v6h-29V327h28.25v6H730.6v10.06h18.69V349H730.6V359.7Z"
          transform="translate(-66.94 -32.87)"/>
    <path class="b"
          d="M207.73,456.74l-7.91-11.33c-.33,0-.83,0-1.49,0h-8.74v11.28H182.4V418h15.93a21.53,21.53,0,0,1,8.76,1.65,12.69,12.69,0,0,1,5.72,4.76,13.25,13.25,0,0,1,2,7.35,13.09,13.09,0,0,1-2.13,7.52,12.59,12.59,0,0,1-6.11,4.7l8.91,12.72Zm-2.6-30.63c-1.63-1.33-4-2-7.14-2h-8.4v15.42H198c3.14,0,5.51-.67,7.14-2a7,7,0,0,0,2.43-5.73A6.93,6.93,0,0,0,205.13,426.11Z"
          transform="translate(-66.94 -32.87)"/>
    <path class="b" d="M272.92,450.71v6h-29V418h28.26v6H251.08v10.07h18.69V440H251.08v10.67Z"
          transform="translate(-66.94 -32.87)"/>
    <path class="b"
          d="M305.67,456a18,18,0,0,1-6.61-3.37l2.49-5.59a19.36,19.36,0,0,0,5.83,3.07,21.06,21.06,0,0,0,6.94,1.19c2.88,0,5-.46,6.44-1.38a4.19,4.19,0,0,0,2.13-3.65,3.51,3.51,0,0,0-1.19-2.74,8.17,8.17,0,0,0-3-1.68q-1.83-.62-5-1.39a56.54,56.54,0,0,1-7.16-2.1,11.75,11.75,0,0,1-4.7-3.29,8.84,8.84,0,0,1-2-6,10.32,10.32,0,0,1,1.74-5.83,11.78,11.78,0,0,1,5.25-4.18,21.36,21.36,0,0,1,8.6-1.55,27.81,27.81,0,0,1,7,.89,19.15,19.15,0,0,1,5.92,2.54l-2.27,5.59a22.49,22.49,0,0,0-5.31-2.27,19.69,19.69,0,0,0-5.36-.78q-4.26,0-6.33,1.44a4.43,4.43,0,0,0-2.08,3.82,3.47,3.47,0,0,0,1.19,2.71,8.65,8.65,0,0,0,3,1.66q1.81.6,5,1.38a51.45,51.45,0,0,1,7.08,2.07,12.22,12.22,0,0,1,4.73,3.29,8.68,8.68,0,0,1,2,6,10.21,10.21,0,0,1-1.74,5.81,11.91,11.91,0,0,1-5.28,4.15,21.55,21.55,0,0,1-8.63,1.54A29.45,29.45,0,0,1,305.67,456Z"
          transform="translate(-66.94 -32.87)"/>
    <path class="b" d="M387.45,450.71v6h-29V418h28.26v6H365.61v10.07H384.3V440H365.61v10.67Z"
          transform="translate(-66.94 -32.87)"/>
    <path class="b"
          d="M443.15,447.78H423.79l-3.81,9h-7.41L430,418h7.07l17.48,38.7H447Zm-2.38-5.64-7.3-16.92-7.24,16.92Z"
          transform="translate(-66.94 -32.87)"/>
    <path class="b"
          d="M506.08,456.74l-7.91-11.33c-.33,0-.83,0-1.49,0h-8.74v11.28h-7.19V418h15.93a21.53,21.53,0,0,1,8.76,1.65,12.69,12.69,0,0,1,5.72,4.76,14.42,14.42,0,0,1-.13,14.87,12.68,12.68,0,0,1-6.11,4.7l8.9,12.72Zm-2.6-30.63q-2.43-2-7.13-2h-8.41v15.42h8.41q4.69,0,7.13-2a7,7,0,0,0,2.43-5.73A6.93,6.93,0,0,0,503.48,426.11Z"
          transform="translate(-66.94 -32.87)"/>
    <path class="b"
          d="M549.52,454.72a19,19,0,0,1-7.41-7.1,20.76,20.76,0,0,1,0-20.46,19.2,19.2,0,0,1,7.44-7.11,21.84,21.84,0,0,1,10.59-2.57,22.23,22.23,0,0,1,8.68,1.66,17.75,17.75,0,0,1,6.63,4.81l-4.64,4.37a13.55,13.55,0,0,0-10.34-4.53,14.54,14.54,0,0,0-7.14,1.74,12.51,12.51,0,0,0-4.92,4.84,14.81,14.81,0,0,0,0,14,12.51,12.51,0,0,0,4.92,4.84A14.54,14.54,0,0,0,560.5,451a13.47,13.47,0,0,0,10.34-4.59l4.64,4.42a17.62,17.62,0,0,1-6.66,4.82,22.42,22.42,0,0,1-8.71,1.65A21.72,21.72,0,0,1,549.52,454.72Z"
          transform="translate(-66.94 -32.87)"/>
    <path class="b" d="M637.37,418v38.7h-7.19V440.15h-20v16.59H603V418h7.19v16h20V418Z"
          transform="translate(-66.94 -32.87)"/>
    <path class="b" d="M306.13,509.05h7.19v32.62h20.23v6.08H306.13Z" transform="translate(-66.94 -32.87)"/>
    <path class="b"
          d="M388.2,538.8H368.84l-3.81,9h-7.41L375,509.05h7.07l17.48,38.7h-7.52Zm-2.38-5.64-7.3-16.92-7.24,16.92Z"
          transform="translate(-66.94 -32.87)"/>
    <path class="b"
          d="M458.31,531.14a9.73,9.73,0,0,1,1.88,6.11,9,9,0,0,1-3.87,7.77q-3.87,2.73-11.28,2.73H425.8v-38.7h18.14q6.85,0,10.56,2.68a8.61,8.61,0,0,1,3.7,7.38,9.75,9.75,0,0,1-1.32,5.09,9.14,9.14,0,0,1-3.65,3.43A10.21,10.21,0,0,1,458.31,531.14ZM433,514.69v10.67h10.17a10.27,10.27,0,0,0,5.78-1.36,4.45,4.45,0,0,0,2-4,4.52,4.52,0,0,0-2-4,10.36,10.36,0,0,0-5.78-1.35Zm20,21.84q0-5.58-8.35-5.59H433v11.17H444.6Q453,542.11,453,536.53Z"
          transform="translate(-66.94 -32.87)"/>
    <path class="b"
          d="M492.61,547a18,18,0,0,1-6.61-3.38l2.49-5.58a19.82,19.82,0,0,0,5.83,3.07,21.26,21.26,0,0,0,6.94,1.18c2.88,0,5-.45,6.44-1.38a4.18,4.18,0,0,0,2.13-3.65,3.54,3.54,0,0,0-1.19-2.73,8.42,8.42,0,0,0-3-1.69q-1.83-.61-5-1.38a58.25,58.25,0,0,1-7.16-2.1,11.85,11.85,0,0,1-4.7-3.29,8.89,8.89,0,0,1-2-6.06,10.32,10.32,0,0,1,1.74-5.83,11.84,11.84,0,0,1,5.25-4.18,21.34,21.34,0,0,1,8.6-1.54,27.8,27.8,0,0,1,7,.88,19.33,19.33,0,0,1,5.91,2.54L513,517.51a22.49,22.49,0,0,0-5.31-2.27,19.67,19.67,0,0,0-5.36-.77q-4.26,0-6.33,1.43a4.43,4.43,0,0,0-2.08,3.82,3.45,3.45,0,0,0,1.19,2.71,8.69,8.69,0,0,0,3,1.66q1.83.6,5,1.38a53.35,53.35,0,0,1,7.08,2.07,12.22,12.22,0,0,1,4.73,3.29,8.74,8.74,0,0,1,2,6,10.2,10.2,0,0,1-1.74,5.8,11.84,11.84,0,0,1-5.28,4.15,21.55,21.55,0,0,1-8.63,1.55A29.73,29.73,0,0,1,492.61,547Z"
          transform="translate(-66.94 -32.87)"/>
</svg>